<?xml version="1.0" encoding="UTF-8" standalone="no"?>
<svg
   xmlns:dc="http://purl.org/dc/elements/1.1/"
   xmlns:cc="http://creativecommons.org/ns#"
   xmlns:rdf="http://www.w3.org/1999/02/22-rdf-syntax-ns#"
   xmlns:svg="http://www.w3.org/2000/svg"
   xmlns="http://www.w3.org/2000/svg"
   viewBox="0 0 303.26624 36.545876"
   height="36.545876"
   width="303.26624"
   xml:space="preserve"
   version="1.1"
   id="svg4155"><metadata
     id="metadata4161"><rdf:RDF><cc:Work
         rdf:about=""><dc:format>image/svg+xml</dc:format><dc:type
           rdf:resource="http://purl.org/dc/dcmitype/StillImage" /><dc:title></dc:title></cc:Work></rdf:RDF></metadata><defs
     id="defs4159"><clipPath
       id="clipPath4185"
       clipPathUnits="userSpaceOnUse"><path
         id="path4187"
         d="m 0,29.237 242.613,0 L 242.613,0 0,0 0,29.237 Z" /></clipPath><clipPath
       id="clipPath4207"
       clipPathUnits="userSpaceOnUse"><path
         id="path4209"
         d="m 0,29.237 242.613,0 L 242.613,0 0,0 0,29.237 Z" /></clipPath></defs><g
     transform="matrix(1.25,0,0,-1.25,0,36.545875)"
     id="g4163"><g
       transform="translate(12.8801,14.6183)"
       id="g4165"><path
         id="path4167"
         style="fill:none;stroke:#50524f;stroke-width:2.23699999;stroke-linecap:round;stroke-linejoin:round;stroke-miterlimit:10;stroke-dasharray:none;stroke-opacity:1"
         d="M 0,0 5.151,0" /></g><g
       transform="translate(18.1936,20.3035)"
       id="g4169"><path
         id="path4171"
         style="fill:none;stroke:#50524f;stroke-width:2.23699999;stroke-linecap:round;stroke-linejoin:round;stroke-miterlimit:10;stroke-dasharray:none;stroke-opacity:1"
         d="M 0,0 5.151,0" /></g><g
       transform="translate(18.1936,8.9332)"
       id="g4173"><path
         id="path4175"
         style="fill:none;stroke:#50524f;stroke-width:2.23699999;stroke-linecap:round;stroke-linejoin:round;stroke-miterlimit:10;stroke-dasharray:none;stroke-opacity:1"
         d="M 0,0 5.151,0" /></g><g
       transform="translate(18.1936,20.3035)"
       id="g4177"><path
         id="path4179"
         style="fill:none;stroke:#50524f;stroke-width:2.23699999;stroke-linecap:round;stroke-linejoin:round;stroke-miterlimit:10;stroke-dasharray:none;stroke-opacity:1"
         d="M 0,0 0,-11.37" /></g><g
       id="g4181"><g
         clip-path="url(#clipPath4185)"
         id="g4183"><g
           transform="translate(19.6936,1.1183)"
           id="g4189"><path
             id="path4191"
             style="fill:none;stroke:#50524f;stroke-width:2.23699999;stroke-linecap:round;stroke-linejoin:round;stroke-miterlimit:10;stroke-dasharray:none;stroke-opacity:1"
             d="m 0,0 -15,0 0,27 27,0 0,-16.531" /></g></g></g><g
       transform="translate(31.6936,17.6496)"
       id="g4193"><path
         id="path4195"
         style="fill:none;stroke:#50524f;stroke-width:2.23699999;stroke-linecap:round;stroke-linejoin:round;stroke-miterlimit:10;stroke-dasharray:none;stroke-opacity:1"
         d="m 0,0 -8.186,0 0,5.308 8.186,0" /></g><path
       id="path4197"
       style="fill:none;stroke:#50524f;stroke-width:2.23699999;stroke-linecap:round;stroke-linejoin:round;stroke-miterlimit:10;stroke-dasharray:none;stroke-opacity:1"
       d="m 35.269,6.279 -11.762,0 0,5.308 11.762,0 0,-5.308 z" /><path
       id="path4199"
       style="fill:#ffffff;fill-opacity:1;fill-rule:nonzero;stroke:#50524f;stroke-width:2.23699999;stroke-linecap:round;stroke-linejoin:round;stroke-miterlimit:10;stroke-dasharray:none;stroke-opacity:1"
       d="m 35.269,17.65 -11.762,0 0,5.308 11.762,0 0,-5.308 z" /><path
       id="path4201"
       style="fill:#ffffff;fill-opacity:1;fill-rule:nonzero;stroke:none"
       d="m 12.88,11.964 -11.762,0 0,5.308 11.762,0 0,-5.308 z" /><g
       id="g4203"><g
         clip-path="url(#clipPath4207)"
         id="g4205"><path
           id="path4211"
           style="fill:none;stroke:#50524f;stroke-width:2.23699999;stroke-linecap:round;stroke-linejoin:round;stroke-miterlimit:10;stroke-dasharray:none;stroke-opacity:1"
           d="m 12.88,11.964 -11.762,0 0,5.308 11.762,0 0,-5.308 z" /><g
           transform="translate(53.0718,7.7414)"
           id="g4213"><path
             id="path4215"
             style="fill:#585958;fill-opacity:1;fill-rule:nonzero;stroke:none"
             d="m 0,0 c -3.875,0 -6.763,3.021 -6.763,6.857 0,3.8 2.83,6.897 6.858,6.897 2.451,0 3.932,-0.856 5.205,-2.071 L 3.8,9.954 c -1.065,0.988 -2.204,1.652 -3.724,1.652 -2.546,0 -4.388,-2.088 -4.388,-4.71 0,-2.622 1.842,-4.75 4.388,-4.75 1.634,0 2.679,0.666 3.819,1.729 L 5.396,2.355 C 4.009,0.911 2.488,0 0,0" /></g><g
           transform="translate(68.8033,19.3478)"
           id="g4217"><path
             id="path4219"
             style="fill:#585958;fill-opacity:1;fill-rule:nonzero;stroke:none"
             d="m 0,0 c -2.641,0 -4.483,-2.108 -4.483,-4.711 0,-2.602 1.88,-4.749 4.521,-4.749 2.641,0 4.483,2.108 4.483,4.711 C 4.521,-2.146 2.641,0 0,0 m 0,-11.606 c -4.084,0 -6.934,3.095 -6.934,6.857 0,3.762 2.888,6.896 6.972,6.896 4.084,0 6.934,-3.096 6.934,-6.858 0,-3.762 -2.887,-6.895 -6.972,-6.895" /></g><g
           transform="translate(82.8638,13.5734)"
           id="g4221"><path
             id="path4223"
             style="fill:#585958;fill-opacity:1;fill-rule:nonzero;stroke:none"
             d="m 0,0 0,-5.604 -2.337,0 0,13.297 2.337,0 0,-5.528 6.345,0 0,5.528 2.337,0 0,-13.297 -2.337,0 L 6.345,0 0,0 Z" /></g><g
           transform="translate(106.7457,19.1769)"
           id="g4225"><path
             id="path4227"
             style="fill:#585958;fill-opacity:1;fill-rule:nonzero;stroke:none"
             d="m 0,0 -7.522,0 0,-3.457 6.668,0 0,-2.09 -6.668,0 0,-3.571 7.617,0 0,-2.09 -9.954,0 0,13.298 L 0,2.09 0,0 Z" /></g><g
           transform="translate(117.272,19.1389)"
           id="g4229"><path
             id="path4231"
             style="fill:#585958;fill-opacity:1;fill-rule:nonzero;stroke:none"
             d="m 0,0 -3.4,0 0,-4.464 3.419,0 c 1.671,0 2.735,0.874 2.735,2.241 C 2.754,-0.76 1.729,0 0,0 m 2.792,-11.17 -3.268,4.636 -2.924,0 0,-4.636 -2.337,0 0,13.298 5.926,0 c 3.059,0 4.94,-1.614 4.94,-4.217 0,-2.204 -1.311,-3.534 -3.173,-4.047 l 3.591,-5.034 -2.755,0 z" /></g><g
           transform="translate(137.0503,19.1769)"
           id="g4233"><path
             id="path4235"
             style="fill:#585958;fill-opacity:1;fill-rule:nonzero;stroke:none"
             d="m 0,0 -7.522,0 0,-3.457 6.668,0 0,-2.09 -6.668,0 0,-3.571 7.617,0 0,-2.09 -9.954,0 0,13.298 L 0,2.09 0,0 Z" /></g><g
           transform="translate(151.1294,21.2668)"
           id="g4237"><path
             id="path4239"
             style="fill:#585958;fill-opacity:1;fill-rule:nonzero;stroke:none"
             d="m 0,0 2.299,0 0,-13.298 -1.956,0 -7.333,9.461 0,-9.461 -2.299,0 0,13.298 2.165,0 L 0,-9.194 0,0 Z" /></g><g
           transform="translate(164.9429,7.7414)"
           id="g4241"><path
             id="path4243"
             style="fill:#585958;fill-opacity:1;fill-rule:nonzero;stroke:none"
             d="m 0,0 c -3.875,0 -6.763,3.021 -6.763,6.857 0,3.8 2.83,6.897 6.858,6.897 2.451,0 3.932,-0.856 5.205,-2.071 L 3.8,9.954 c -1.065,0.988 -2.204,1.652 -3.724,1.652 -2.546,0 -4.388,-2.088 -4.388,-4.71 0,-2.622 1.842,-4.75 4.388,-4.75 1.634,0 2.679,0.666 3.819,1.729 L 5.396,2.355 C 4.009,0.911 2.488,0 0,0" /></g><g
           transform="translate(184.5689,19.1769)"
           id="g4245"><path
             id="path4247"
             style="fill:#585958;fill-opacity:1;fill-rule:nonzero;stroke:none"
             d="m 0,0 -7.522,0 0,-3.457 6.668,0 0,-2.09 -6.668,0 0,-3.571 7.617,0 0,-2.09 -9.954,0 0,13.298 L 0,2.09 0,0 Z" /></g><g
           transform="translate(203.5123,11.2365)"
           id="g4249"><path
             id="path4251"
             style="fill:#585958;fill-opacity:1;fill-rule:nonzero;stroke:none"
             d="m 0,0 -0.076,0 -4.16,6.231 0,-9.499 -2.299,0 0,13.298 2.488,0 L 0,3.742 l 4.046,6.288 2.489,0 0,-13.298 -2.337,0 0,9.537 L 0,0 Z" /></g><g
           transform="translate(221.1441,18.5695)"
           id="g4253"><path
             id="path4255"
             style="fill:#585958;fill-opacity:1;fill-rule:nonzero;stroke:none"
             d="m 0,0 -2.279,-5.319 4.578,0 L 0,0 Z m 6.972,-10.601 -2.47,0 -1.349,3.211 -6.288,0 -1.367,-3.211 -2.394,0 5.851,13.393 2.166,0 5.851,-13.393 z" /></g><g
           transform="translate(237.3697,19.1389)"
           id="g4257"><path
             id="path4259"
             style="fill:#585958;fill-opacity:1;fill-rule:nonzero;stroke:none"
             d="m 0,0 -2.716,0 0,-4.787 2.716,0 c 1.767,0 2.869,0.969 2.869,2.393 C 2.869,-0.816 1.748,0 0,0 m -0.076,-6.896 -2.64,0 0,-4.274 -2.337,0 0,13.298 5.243,0 c 3.097,0 5.053,-1.747 5.053,-4.464 0,-3.002 -2.393,-4.56 -5.319,-4.56" /></g></g></g></g></svg>