<svg height="18" viewBox="0 0 18 18" width="18" xmlns="http://www.w3.org/2000/svg"><g fill="#22a469" transform="matrix(-1 0 0 1 17.5 .5)"><path d="m1 1v4.832h4.832v-4.832zm-.5-1h5.832c.27614237 0 .5.22385763.5.5v5.832c0 .27614237-.22385763.5-.5.5h-5.832c-.27614237 0-.5-.22385763-.5-.5v-5.832c0-.27614237.22385763-.5.5-.5z"/><path d="m11.002 1v4.832h4.832v-4.832zm-.5-1h5.832c.2761424 0 .5.22385763.5.5v5.832c0 .27614237-.2238576.5-.5.5h-5.832c-.2761424 0-.5-.22385763-.5-.5v-5.832c0-.27614237.2238576-.5.5-.5z"/><path d="m1 11.002v4.832h4.832v-4.832zm-.5-1h5.832c.27614237 0 .5.2238576.5.5v5.832c0 .2761424-.22385763.5-.5.5h-5.832c-.27614237 0-.5-.2238576-.5-.5v-5.832c0-.2761424.22385763-.5.5-.5z"/><path d="m11.002 15.834h4.832v-4.832h-4.832zm-.5-5.832h5.832c.2761424 0 .5.2238576.5.5v5.832c0 .2761424-.2238576.5-.5.5h-5.832c-.2761424 0-.5-.2238576-.5-.5v-5.832c0-.2761424.2238576-.5.5-.5z"/></g></svg>