<?xml version="1.0" encoding="UTF-8"?>
<svg width="585px" height="120px" viewBox="0 0 585 120" version="1.1" xmlns="http://www.w3.org/2000/svg" xmlns:xlink="http://www.w3.org/1999/xlink">
    <!-- Generator: Sketch 52.6 (67491) - http://www.bohemiancoding.com/sketch -->
    <title>Group 6 Copy 4</title>
    <desc>Created with Sketch.</desc>
    <g id="Style-Guide" stroke="none" stroke-width="1" fill="none" fill-rule="evenodd">
        <g id="Modeling-Flow-Graphic" transform="translate(-189.000000, -805.000000)">
            <g id="Group-6-Copy-4" transform="translate(189.000000, 805.000000)">
                <rect id="Rectangle" stroke="#2A7251" fill="#CEEEDF" x="0.5" y="5.5" width="119" height="39" rx="5"></rect>
                <rect id="Rectangle-Copy-4" stroke="#2A7251" fill="#F2FAF6" x="155.5" y="5.5" width="119" height="39" rx="19.5"></rect>
                <rect id="Rectangle-Copy-7" stroke="#2A7251" fill="#F2FAF6" x="155.5" y="80.5" width="119" height="39" rx="19.5"></rect>
                <path d="M314.260205,9.79686278 C312.090359,10.1585038 310.5,12.0358593 310.5,14.2356354 L310.5,35.7643646 C310.5,37.9641407 312.090359,39.8414962 314.260205,40.2031372 L369.260205,49.3698039 C369.750023,49.4514403 370.249977,49.4514403 370.739795,49.3698039 L425.739795,40.2031372 C427.909641,39.8414962 429.5,37.9641407 429.5,35.7643646 L429.5,14.2356354 C429.5,12.0358593 427.909641,10.1585038 425.739795,9.79686278 L370.739795,0.630196118 C370.249977,0.548559661 369.750023,0.548559661 369.260205,0.630196118 L314.260205,9.79686278 Z" id="Rectangle-Copy-5" stroke="#2A7251" fill="#F2FAF6"></path>
                <rect id="Rectangle-Copy-8" stroke="#2A7251" fill="#F2FAF6" x="310.5" y="80.5" width="119" height="39" rx="19.5"></rect>
                <rect id="Rectangle-Copy-6" stroke="#2A7251" fill="#CEEEDF" x="465.5" y="5.5" width="119" height="39" rx="5"></rect>
                <path d="M25.734,30 L25.734,20.06 L29.57,20.06 C31.432,20.06 32.734,21.362 32.734,23.294 C32.734,25.226 31.432,26.57 29.57,26.57 L27.54,26.57 L27.54,30 L25.734,30 Z M27.54,25.002 L29.234,25.002 C30.284,25.002 30.9,24.33 30.9,23.294 C30.9,22.272 30.284,21.614 29.262,21.614 L27.54,21.614 L27.54,25.002 Z M35.33,30 L35.33,20.06 L38.536,20.06 C39.614,20.06 40.104,20.144 40.538,20.34 C41.532,20.788 42.162,21.74 42.162,23.056 C42.162,24.246 41.532,25.352 40.482,25.772 L40.482,25.8 C40.482,25.8 40.622,25.94 40.818,26.29 L42.862,30 L40.846,30 L38.872,26.29 L37.136,26.29 L37.136,30 L35.33,30 Z M37.136,24.722 L38.76,24.722 C39.726,24.722 40.328,24.148 40.328,23.154 C40.328,22.202 39.922,21.614 38.508,21.614 L37.136,21.614 L37.136,24.722 Z M44.8,24.96 C44.8,22.118 47.012,19.892 49.938,19.892 C52.864,19.892 55.076,22.118 55.076,24.96 C55.076,27.886 52.864,30.168 49.938,30.168 C47.012,30.168 44.8,27.886 44.8,24.96 Z M46.662,24.96 C46.662,27.004 48.118,28.516 49.938,28.516 C51.758,28.516 53.214,27.004 53.214,24.96 C53.214,23 51.758,21.544 49.938,21.544 C48.118,21.544 46.662,23 46.662,24.96 Z M57.91,30 L57.91,20.06 L61.466,20.06 C63.258,20.06 64.532,20.984 64.532,22.622 C64.532,23.546 64.084,24.344 63.328,24.75 L63.328,24.778 C64.42,25.1 64.938,26.108 64.938,27.116 C64.938,29.104 63.342,30 61.508,30 L57.91,30 Z M59.716,24.12 L61.466,24.12 C62.25,24.12 62.698,23.56 62.698,22.846 C62.698,22.132 62.278,21.614 61.438,21.614 L59.716,21.614 L59.716,24.12 Z M59.716,28.446 L61.648,28.446 C62.572,28.446 63.09,27.844 63.09,27.004 C63.09,26.178 62.558,25.576 61.648,25.576 L59.716,25.576 L59.716,28.446 Z M67.898,30 L67.898,20.06 L69.704,20.06 L69.704,28.446 L74.002,28.446 L74.002,30 L67.898,30 Z M76.444,30 L76.444,20.06 L82.394,20.06 L82.394,21.614 L78.25,21.614 L78.25,24.218 L81.596,24.218 L81.596,25.772 L78.25,25.772 L78.25,28.446 L82.618,28.446 L82.618,30 L76.444,30 Z M85.186,30 L85.998,20.06 L87.93,20.06 L89.876,24.974 C90.1,25.562 90.38,26.43 90.38,26.43 L90.408,26.43 C90.408,26.43 90.674,25.562 90.898,24.974 L92.844,20.06 L94.776,20.06 L95.574,30 L93.782,30 L93.362,24.442 C93.32,23.784 93.348,22.902 93.348,22.902 L93.32,22.902 C93.32,22.902 93.026,23.868 92.788,24.442 L91.178,28.292 L89.596,28.292 L88,24.442 C87.762,23.868 87.454,22.888 87.454,22.888 L87.426,22.888 C87.426,22.888 87.454,23.784 87.412,24.442 L86.992,30 L85.186,30 Z" id="PROBLEM" fill="#2A7251"></path>
                <path d="M170.61,30 L170.61,20.06 L176.322,20.06 L176.322,21.614 L172.416,21.614 L172.416,24.428 L175.706,24.428 L175.706,25.982 L172.416,25.982 L172.416,30 L170.61,30 Z M178.33,24.96 C178.33,22.118 180.542,19.892 183.468,19.892 C186.394,19.892 188.606,22.118 188.606,24.96 C188.606,27.886 186.394,30.168 183.468,30.168 C180.542,30.168 178.33,27.886 178.33,24.96 Z M180.192,24.96 C180.192,27.004 181.648,28.516 183.468,28.516 C185.288,28.516 186.744,27.004 186.744,24.96 C186.744,23 185.288,21.544 183.468,21.544 C181.648,21.544 180.192,23 180.192,24.96 Z M191.44,30 L191.44,20.06 L194.646,20.06 C195.724,20.06 196.214,20.144 196.648,20.34 C197.642,20.788 198.272,21.74 198.272,23.056 C198.272,24.246 197.642,25.352 196.592,25.772 L196.592,25.8 C196.592,25.8 196.732,25.94 196.928,26.29 L198.972,30 L196.956,30 L194.982,26.29 L193.246,26.29 L193.246,30 L191.44,30 Z M193.246,24.722 L194.87,24.722 C195.836,24.722 196.438,24.148 196.438,23.154 C196.438,22.202 196.032,21.614 194.618,21.614 L193.246,21.614 L193.246,24.722 Z M201.344,30 L202.156,20.06 L204.088,20.06 L206.034,24.974 C206.258,25.562 206.538,26.43 206.538,26.43 L206.566,26.43 C206.566,26.43 206.832,25.562 207.056,24.974 L209.002,20.06 L210.934,20.06 L211.732,30 L209.94,30 L209.52,24.442 C209.478,23.784 209.506,22.902 209.506,22.902 L209.478,22.902 C209.478,22.902 209.184,23.868 208.946,24.442 L207.336,28.292 L205.754,28.292 L204.158,24.442 C203.92,23.868 203.612,22.888 203.612,22.888 L203.584,22.888 C203.584,22.888 203.612,23.784 203.57,24.442 L203.15,30 L201.344,30 Z M214.804,26.43 L214.804,20.06 L216.61,20.06 L216.61,26.43 C216.61,27.76 217.478,28.516 218.808,28.516 C220.138,28.516 221.02,27.76 221.02,26.416 L221.02,20.06 L222.826,20.06 L222.826,26.43 C222.826,28.656 221.216,30.168 218.822,30.168 C216.414,30.168 214.804,28.656 214.804,26.43 Z M226.206,30 L226.206,20.06 L228.012,20.06 L228.012,28.446 L232.31,28.446 L232.31,30 L226.206,30 Z M240.856,30 L240.016,27.452 L236.53,27.452 L235.69,30 L233.828,30 L237.328,20.06 L239.218,20.06 L242.718,30 L240.856,30 Z M238.294,21.782 L238.266,21.782 C238.266,21.782 238.042,22.762 237.846,23.322 L236.964,25.982 L239.568,25.982 L238.686,23.322 C238.504,22.762 238.294,21.782 238.294,21.782 Z M246.476,30 L246.476,21.614 L243.214,21.614 L243.214,20.06 L251.544,20.06 L251.544,21.614 L248.282,21.614 L248.282,30 L246.476,30 Z M253.86,30 L253.86,20.06 L259.81,20.06 L259.81,21.614 L255.666,21.614 L255.666,24.218 L259.012,24.218 L259.012,25.772 L255.666,25.772 L255.666,28.446 L260.034,28.446 L260.034,30 L253.86,30 Z" id="FORMULATE" fill="#2A7251"></path>
                <path d="M178.057,99.988 C178.057,97.104 180.241,94.892 183.167,94.892 C185.589,94.892 186.835,96.25 186.835,96.25 L185.967,97.594 C185.967,97.594 184.833,96.544 183.251,96.544 C181.151,96.544 179.919,98.112 179.919,99.96 C179.919,101.85 181.193,103.516 183.265,103.516 C184.987,103.516 186.149,102.256 186.149,102.256 L187.101,103.558 C187.101,103.558 185.729,105.168 183.195,105.168 C180.157,105.168 178.057,102.914 178.057,99.988 Z M189.025,99.96 C189.025,97.118 191.237,94.892 194.163,94.892 C197.089,94.892 199.301,97.118 199.301,99.96 C199.301,102.886 197.089,105.168 194.163,105.168 C191.237,105.168 189.025,102.886 189.025,99.96 Z M190.887,99.96 C190.887,102.004 192.343,103.516 194.163,103.516 C195.983,103.516 197.439,102.004 197.439,99.96 C197.439,98 195.983,96.544 194.163,96.544 C192.343,96.544 190.887,98 190.887,99.96 Z M201.827,105 L202.639,95.06 L204.571,95.06 L206.517,99.974 C206.741,100.562 207.021,101.43 207.021,101.43 L207.049,101.43 C207.049,101.43 207.315,100.562 207.539,99.974 L209.485,95.06 L211.417,95.06 L212.215,105 L210.423,105 L210.003,99.442 C209.961,98.784 209.989,97.902 209.989,97.902 L209.961,97.902 C209.961,97.902 209.667,98.868 209.429,99.442 L207.819,103.292 L206.237,103.292 L204.641,99.442 C204.403,98.868 204.095,97.888 204.095,97.888 L204.067,97.888 C204.067,97.888 204.095,98.784 204.053,99.442 L203.633,105 L201.827,105 Z M215.427,105 L215.427,95.06 L219.263,95.06 C221.125,95.06 222.427,96.362 222.427,98.294 C222.427,100.226 221.125,101.57 219.263,101.57 L217.233,101.57 L217.233,105 L215.427,105 Z M217.233,100.002 L218.927,100.002 C219.977,100.002 220.593,99.33 220.593,98.294 C220.593,97.272 219.977,96.614 218.955,96.614 L217.233,96.614 L217.233,100.002 Z M224.883,101.43 L224.883,95.06 L226.689,95.06 L226.689,101.43 C226.689,102.76 227.557,103.516 228.887,103.516 C230.217,103.516 231.099,102.76 231.099,101.416 L231.099,95.06 L232.905,95.06 L232.905,101.43 C232.905,103.656 231.295,105.168 228.901,105.168 C226.493,105.168 224.883,103.656 224.883,101.43 Z M238.343,105 L238.343,96.614 L235.081,96.614 L235.081,95.06 L243.411,95.06 L243.411,96.614 L240.149,96.614 L240.149,105 L238.343,105 Z M245.727,105 L245.727,95.06 L251.677,95.06 L251.677,96.614 L247.533,96.614 L247.533,99.218 L250.879,99.218 L250.879,100.772 L247.533,100.772 L247.533,103.446 L251.901,103.446 L251.901,105 L245.727,105 Z" id="COMPUTE" fill="#2A7251"></path>
                <path d="M337.842,30 L334.216,20.06 L336.162,20.06 L338.346,26.542 C338.542,27.116 338.71,27.998 338.724,27.998 L338.752,27.998 C338.766,27.998 338.934,27.116 339.13,26.542 L341.328,20.06 L343.26,20.06 L339.634,30 L337.842,30 Z M350.896,30 L350.056,27.452 L346.57,27.452 L345.73,30 L343.868,30 L347.368,20.06 L349.258,20.06 L352.758,30 L350.896,30 Z M348.334,21.782 L348.306,21.782 C348.306,21.782 348.082,22.762 347.886,23.322 L347.004,25.982 L349.608,25.982 L348.726,23.322 C348.544,22.762 348.334,21.782 348.334,21.782 Z M355.032,30 L355.032,20.06 L356.838,20.06 L356.838,28.446 L361.136,28.446 L361.136,30 L355.032,30 Z M363.578,30 L363.578,20.06 L365.384,20.06 L365.384,30 L363.578,30 Z M368.904,30 L368.904,20.06 L372.292,20.06 C375.358,20.06 377.36,21.88 377.36,25.016 C377.36,28.152 375.358,30 372.292,30 L368.904,30 Z M370.71,28.446 L372.194,28.446 C374.21,28.446 375.498,27.256 375.498,25.016 C375.498,22.804 374.182,21.614 372.194,21.614 L370.71,21.614 L370.71,28.446 Z M385.976,30 L385.136,27.452 L381.65,27.452 L380.81,30 L378.948,30 L382.448,20.06 L384.338,20.06 L387.838,30 L385.976,30 Z M383.414,21.782 L383.386,21.782 C383.386,21.782 383.162,22.762 382.966,23.322 L382.084,25.982 L384.688,25.982 L383.806,23.322 C383.624,22.762 383.414,21.782 383.414,21.782 Z M391.596,30 L391.596,21.614 L388.334,21.614 L388.334,20.06 L396.664,20.06 L396.664,21.614 L393.402,21.614 L393.402,30 L391.596,30 Z M398.98,30 L398.98,20.06 L404.93,20.06 L404.93,21.614 L400.786,21.614 L400.786,24.218 L404.132,24.218 L404.132,25.772 L400.786,25.772 L400.786,28.446 L405.154,28.446 L405.154,30 L398.98,30 Z" id="VALIDATE" fill="#2A7251"></path>
                <path d="M329.275,105 L329.275,95.06 L331.081,95.06 L331.081,105 L329.275,105 Z M334.601,105 L334.601,95.06 L336.407,95.06 L340.173,100.8 C340.551,101.374 340.999,102.34 340.999,102.34 L341.027,102.34 C341.027,102.34 340.929,101.388 340.929,100.8 L340.929,95.06 L342.721,95.06 L342.721,105 L340.929,105 L337.163,99.274 C336.785,98.7 336.337,97.734 336.337,97.734 L336.309,97.734 C336.309,97.734 336.407,98.686 336.407,99.274 L336.407,105 L334.601,105 Z M348.299,105 L348.299,96.614 L345.037,96.614 L345.037,95.06 L353.367,95.06 L353.367,96.614 L350.105,96.614 L350.105,105 L348.299,105 Z M355.683,105 L355.683,95.06 L361.633,95.06 L361.633,96.614 L357.489,96.614 L357.489,99.218 L360.835,99.218 L360.835,100.772 L357.489,100.772 L357.489,103.446 L361.857,103.446 L361.857,105 L355.683,105 Z M364.733,105 L364.733,95.06 L367.939,95.06 C369.017,95.06 369.507,95.144 369.941,95.34 C370.935,95.788 371.565,96.74 371.565,98.056 C371.565,99.246 370.935,100.352 369.885,100.772 L369.885,100.8 C369.885,100.8 370.025,100.94 370.221,101.29 L372.265,105 L370.249,105 L368.275,101.29 L366.539,101.29 L366.539,105 L364.733,105 Z M366.539,99.722 L368.163,99.722 C369.129,99.722 369.731,99.148 369.731,98.154 C369.731,97.202 369.325,96.614 367.911,96.614 L366.539,96.614 L366.539,99.722 Z M374.945,105 L374.945,95.06 L378.781,95.06 C380.643,95.06 381.945,96.362 381.945,98.294 C381.945,100.226 380.643,101.57 378.781,101.57 L376.751,101.57 L376.751,105 L374.945,105 Z M376.751,100.002 L378.445,100.002 C379.495,100.002 380.111,99.33 380.111,98.294 C380.111,97.272 379.495,96.614 378.473,96.614 L376.751,96.614 L376.751,100.002 Z M384.541,105 L384.541,95.06 L387.747,95.06 C388.825,95.06 389.315,95.144 389.749,95.34 C390.743,95.788 391.373,96.74 391.373,98.056 C391.373,99.246 390.743,100.352 389.693,100.772 L389.693,100.8 C389.693,100.8 389.833,100.94 390.029,101.29 L392.073,105 L390.057,105 L388.083,101.29 L386.347,101.29 L386.347,105 L384.541,105 Z M386.347,99.722 L387.971,99.722 C388.937,99.722 389.539,99.148 389.539,98.154 C389.539,97.202 389.133,96.614 387.719,96.614 L386.347,96.614 L386.347,99.722 Z M394.753,105 L394.753,95.06 L400.703,95.06 L400.703,96.614 L396.559,96.614 L396.559,99.218 L399.905,99.218 L399.905,100.772 L396.559,100.772 L396.559,103.446 L400.927,103.446 L400.927,105 L394.753,105 Z M405.861,105 L405.861,96.614 L402.599,96.614 L402.599,95.06 L410.929,95.06 L410.929,96.614 L407.667,96.614 L407.667,105 L405.861,105 Z" id="INTERPRET" fill="#2A7251"></path>
                <path d="M496.292,30 L496.292,20.06 L499.498,20.06 C500.576,20.06 501.066,20.144 501.5,20.34 C502.494,20.788 503.124,21.74 503.124,23.056 C503.124,24.246 502.494,25.352 501.444,25.772 L501.444,25.8 C501.444,25.8 501.584,25.94 501.78,26.29 L503.824,30 L501.808,30 L499.834,26.29 L498.098,26.29 L498.098,30 L496.292,30 Z M498.098,24.722 L499.722,24.722 C500.688,24.722 501.29,24.148 501.29,23.154 C501.29,22.202 500.884,21.614 499.47,21.614 L498.098,21.614 L498.098,24.722 Z M506.504,30 L506.504,20.06 L512.454,20.06 L512.454,21.614 L508.31,21.614 L508.31,24.218 L511.656,24.218 L511.656,25.772 L508.31,25.772 L508.31,28.446 L512.678,28.446 L512.678,30 L506.504,30 Z M515.554,30 L515.554,20.06 L519.39,20.06 C521.252,20.06 522.554,21.362 522.554,23.294 C522.554,25.226 521.252,26.57 519.39,26.57 L517.36,26.57 L517.36,30 L515.554,30 Z M517.36,25.002 L519.054,25.002 C520.104,25.002 520.72,24.33 520.72,23.294 C520.72,22.272 520.104,21.614 519.082,21.614 L517.36,21.614 L517.36,25.002 Z M524.464,24.96 C524.464,22.118 526.676,19.892 529.602,19.892 C532.528,19.892 534.74,22.118 534.74,24.96 C534.74,27.886 532.528,30.168 529.602,30.168 C526.676,30.168 524.464,27.886 524.464,24.96 Z M526.326,24.96 C526.326,27.004 527.782,28.516 529.602,28.516 C531.422,28.516 532.878,27.004 532.878,24.96 C532.878,23 531.422,21.544 529.602,21.544 C527.782,21.544 526.326,23 526.326,24.96 Z M537.574,30 L537.574,20.06 L540.78,20.06 C541.858,20.06 542.348,20.144 542.782,20.34 C543.776,20.788 544.406,21.74 544.406,23.056 C544.406,24.246 543.776,25.352 542.726,25.772 L542.726,25.8 C542.726,25.8 542.866,25.94 543.062,26.29 L545.106,30 L543.09,30 L541.116,26.29 L539.38,26.29 L539.38,30 L537.574,30 Z M539.38,24.722 L541.004,24.722 C541.97,24.722 542.572,24.148 542.572,23.154 C542.572,22.202 542.166,21.614 540.752,21.614 L539.38,21.614 L539.38,24.722 Z M549.844,30 L549.844,21.614 L546.582,21.614 L546.582,20.06 L554.912,20.06 L554.912,21.614 L551.65,21.614 L551.65,30 L549.844,30 Z" id="REPORT" fill="#2A7251"></path>
                <path id="Line-3" d="M141.5,26 L120,26 L119.5,26 L119.5,25 L120,25 L141.5,25 L141.5,21 L150.5,25.5 L141.5,30 L141.5,26 Z" fill="#2A7251" fill-rule="nonzero"></path>
                <path id="Line-3-Copy" d="M451.051214,26 L430,26 L429.5,26 L429.5,25 L430,25 L451.051214,25 L451.051214,21 L460.051214,25.5 L451.051214,30 L451.051214,26 Z" fill="#2A7251" fill-rule="nonzero"></path>
                <path id="Line-3-Copy-2" d="M296.5,102 L275,102 L274.5,102 L274.5,101 L275,101 L296.5,101 L296.5,97 L305.5,101.5 L296.5,106 L296.5,102 Z" fill="#2A7251" fill-rule="nonzero"></path>
                <path id="Line-3-Copy-3" d="M288.5,25 L309.551214,25 L310.051214,25 L310.051214,26 L309.551214,26 L288.5,26 L288.5,30 L279.5,25.5 L288.5,21 L288.5,25 Z" fill="#2A7251" fill-rule="nonzero"></path>
                <path id="Line-3-Copy-4" d="M215,66.5 L215,45 L215,44.5 L216,44.5 L216,45 L216,66.5 L220,66.5 L215.5,75.5 L211,66.5 L215,66.5 Z" fill="#2A7251" fill-rule="nonzero"></path>
                <path id="Line-3-Copy-5" d="M371,62.5 L371,79 L371,79.5 L370,79.5 L370,79 L370,62.5 L366,62.5 L370.5,53.5 L375,62.5 L371,62.5 Z" fill="#2A7251" fill-rule="nonzero"></path>
            </g>
        </g>
    </g>
</svg>